<svg width="79" height="75" xmlns="http://www.w3.org/2000/svg">
 <!-- Created with Method Draw - http://github.com/duopixel/Method-Draw/ -->
 <g>
  <title>background</title>
  <rect fill="none" id="canvas_background" height="77" width="81" y="-1" x="-1"/>
  <g display="none" overflow="visible" y="0" x="0" height="100%" width="100%" id="canvasGrid">
   <rect fill="url(#gridpattern)" stroke-width="0" y="0" x="0" height="100%" width="100%"/>
  </g>
 </g>
 <g>
  <title>Layer 1</title>
  <path stroke="null" id="svg_2" d="m71.616326,35.906715c-3.140129,-0.62941 -6.408372,-1.043824 -9.062186,-1.155996l-0.468012,-0.018695c0.107198,-0.28043 0.188251,-0.4705 0.214397,-0.498543c0.057521,-0.056086 0.104584,-0.292894 0.109813,-0.52347c0,-0.127752 0.047063,-0.542165 0.120271,-1.090563c0.719014,0.031159 1.673341,0.056086 2.71395,0.065434c4.018632,0.037391 8.222901,0.423761 11.106799,1.031361c1.717789,0.361444 2.285156,0.34898 1.017077,-0.018695c-1.283766,-0.370791 -5.090616,-0.916073 -8.123547,-1.15288c-2.036769,-0.165142 -4.957272,-0.22746 -6.677675,-0.193185c0.049677,-0.355212 0.107198,-0.75093 0.167334,-1.155996c0.243157,-1.567294 0.32421,-3.143936 0.329439,-6.28164c0.005229,-4.867025 -0.214397,-6.206859 -1.545226,-9.425576c-0.541221,-1.314907 -1.153036,-2.430397 -1.892967,-3.439946c0.645805,-2.271486 0.630117,-5.789329 -0.039219,-8.874063c-0.55168,-2.530105 -0.74516,-2.692132 -2.669501,-2.206052c-1.631507,0.414414 -2.938805,0.97839 -4.61476,1.984824c-0.792222,0.476732 -1.885123,1.218314 -2.677345,1.800986c-2.06553,-0.866218 -4.201654,-1.439543 -6.481581,-1.748016c-2.311302,-0.311589 -7.977129,-0.137099 -9.987753,0.305358c-1.966175,0.433109 -3.736256,0.962811 -5.339003,1.592221c-0.800066,-0.588904 -1.960946,-1.383457 -2.789773,-1.881999c-1.683799,-1.009549 -2.991097,-1.57041 -4.627833,-1.984824c-1.919113,-0.489195 -2.117822,-0.324053 -2.666887,2.206052c-0.679795,3.125241 -0.685024,6.702286 -0.013073,8.96754c0.078438,0.258619 0.125501,0.442457 0.143803,0.585788c-2.724408,4.088052 -3.61337,8.662183 -3.022472,15.046647c0.154261,1.663887 0.392189,3.190674 0.724243,4.58971c-1.738706,-0.012464 -4.212112,0.062318 -5.997881,0.199417c-3.038159,0.239924 -6.84501,0.778973 -8.128776,1.149765c-1.265464,0.367675 -0.703326,0.380139 1.017077,0.021811c2.883898,-0.604483 7.090782,-0.997086 11.106799,-1.031361c0.758233,-0.003116 1.466788,-0.021811 2.075988,-0.040507c0.183022,0.738467 0.392189,1.442658 0.630117,2.112575l-0.018302,0.003116c-2.653814,0.109056 -5.919443,0.52347 -9.059571,1.15288c-2.35575,0.4705 -5.833161,1.4115 -6.238424,1.682582c-0.426179,0.283546 -0.078438,0.221228 1.746549,-0.330285c3.328379,-1.003318 7.655534,-1.772943 13.015454,-2.308877l0.598742,-0.062318c1.150422,3.184443 2.923117,5.614839 5.427899,7.509302c1.532153,1.162228 3.987257,2.355615 5.223961,2.542569c0.339897,0.049854 1.328214,0.292894 2.19626,0.535934c0.87066,0.24304 2.572761,0.607599 3.780704,0.816364l0.028761,0c-0.023531,0.018695 -0.044448,0.031159 -0.065365,0.049854c-1.464173,0.906725 -2.415886,2.318224 -3.056461,4.539856c-0.287605,0.102824 -0.645805,0.24304 -1.032765,0.40195c-1.383121,0.560861 -1.921727,0.676149 -3.32315,0.688612c-1.453715,0.012464 -1.798841,-0.062318 -2.666887,-0.548397c-1.262849,-0.701076 -2.439417,-1.991056 -3.223796,-3.530307c-1.309912,-2.573728 -3.574151,-4.393409 -5.461889,-4.393409c-1.613205,0 -1.919113,0.778973 -0.753003,1.916274c1.757008,1.710625 3.069534,3.455525 3.608141,4.789128c0.303293,0.747814 0.768691,1.903811 1.037994,2.567496c0.284991,0.707308 0.894191,1.667003 1.474632,2.330688c1.364819,1.551715 2.682574,2.293297 4.64875,2.642277c1.317756,0.230576 1.641966,0.230576 3.19765,-0.006232c0.750389,-0.109056 1.383121,-0.236808 1.950488,-0.395718c0,0.760278 0,1.635844 0,2.664089c0,5.502667 -0.054906,7.272494 -0.237928,7.789733c-0.345127,0.984622 -1.119047,1.997287 -1.87205,2.452208c-0.750389,0.45492 -0.983088,0.956579 -0.666722,1.417731c0.175178,0.249271 0.512461,0.292894 1.64458,0.205649c2.149197,-0.158911 3.668277,-1.106142 4.442197,-2.776261c0.248387,-0.535934 0.305908,-1.614033 0.384345,-7.22264c0.083667,-6.085339 0.120271,-6.671127 0.452325,-7.540461c0.201324,-0.517238 0.491544,-1.078099 0.653649,-1.230778c0.271918,-0.267967 0.29022,0.261735 0.29022,7.540461c-0.002615,8.032772 -0.070594,9.001815 -0.74516,10.547298c-0.151647,0.352096 -0.439252,0.810132 -0.640576,1.028245c-0.35297,0.383255 -0.502002,1.364761 -0.25623,1.660771c0.405262,0.479848 2.436802,-0.274199 3.545391,-1.314907c1.887738,-1.782291 2.112593,-3.256108 2.12828,-13.899999l0.007844,-6.24425l0.572596,0.065434l0.572596,0.062318l0.094125,8.166756c0.107198,9.195 0.122886,9.328984 1.435413,11.105043c0.74516,1.003318 1.495548,1.557947 2.716564,1.991056c1.634122,0.585788 2.125666,-0.317821 1.027536,-1.885115c-1.19487,-1.704393 -1.252391,-2.355615 -1.187026,-12.444877c0.044448,-6.468594 0.044448,-6.468594 0.394804,-6.091571c0.737316,0.797669 0.878504,2.106344 0.878504,8.172987c0,7.534229 0.180407,8.250885 2.413271,9.565792c1.043223,0.607599 1.336058,0.682381 2.672116,0.688612c1.42234,0.006232 1.508621,-0.018695 1.560913,-0.461152c0.044448,-0.358328 -0.13073,-0.601367 -0.794837,-1.084331c-0.87066,-0.638758 -1.474632,-1.455122 -1.853748,-2.483367c-0.143803,-0.395718 -0.240543,-2.988141 -0.305908,-8.325666c-0.094125,-7.456332 -0.115042,-7.795964 -0.504617,-8.964424c-0.525534,-1.57041 -1.328214,-2.810536 -2.345292,-3.633131c-0.264074,-0.205649 -0.528148,-0.377023 -0.87066,-0.504775c0.42095,-0.049854 0.828827,-0.102824 1.22363,-0.171374c4.110143,-0.651222 6.282872,-1.193387 8.026806,-1.997287c3.689193,-1.69193 6.183517,-4.502465 7.535263,-8.487693c0.120271,-0.355212 0.240543,-0.691728 0.342512,-0.962811l1.040609,0.102824c5.362534,0.539049 9.689689,1.308675 13.018068,2.315109c1.824987,0.551513 2.172728,0.616947 1.746549,0.327169c-0.397418,-0.264851 -3.87483,-1.202735 -6.227965,-1.673235zm-15.724174,-0.096593c-0.609201,1.595337 -2.308687,3.645595 -3.68135,4.449495c-1.35436,0.797669 -3.477411,1.405268 -5.882839,1.695046c-1.64458,0.199417 -10.816579,0.258619 -12.33043,0.081013c-5.012179,-0.585788 -7.820253,-1.735552 -9.891013,-4.038197c-1.960946,-2.187357 -2.876054,-5.156803 -2.716564,-8.811745c0.101969,-2.287065 0.564753,-3.723492 1.77531,-5.468392c1.100744,-1.589105 2.25901,-2.570612 3.623829,-3.069155c1.142578,-0.41753 4.64875,-0.45492 9.362865,-0.093477c2.083832,0.158911 3.80685,0.158911 5.888068,0c4.931126,-0.370791 8.222901,-0.330285 9.438688,0.118404c1.911269,0.704192 3.652589,2.598655 4.698427,5.122528c0.470627,1.127953 0.562138,1.607801 0.630117,3.349585c0.094125,2.399238 -0.253616,4.948038 -0.915108,6.664895zm-24.864798,-10.301142c-2.80546,-0.585788 -4.408207,5.138108 -2.256395,8.060815c1.022307,1.386572 1.929571,1.614033 3.064305,0.772741c1.051067,-0.782089 1.621049,-2.243443 1.621049,-4.137906c0,-2.526989 -0.964786,-4.384061 -2.428959,-4.695651zm17.028857,0.342748c-2.80546,-0.585788 -4.410822,5.131876 -2.25901,8.057699c1.024921,1.386572 1.929571,1.617148 3.06692,0.769626c1.048453,-0.778973 1.621049,-2.243443 1.621049,-4.137906c0,-2.517642 -0.964786,-4.380946 -2.428959,-4.689419zm-7.545721,11.254606c-0.060136,0.230576 -0.35297,0.573324 -0.64842,0.757162c-0.747774,0.458036 -1.286381,0.299126 -2.075988,-0.557745c-0.488929,-0.526586 -0.71117,-0.8039 -0.860202,-0.252387c-0.138574,0.511006 0.732087,1.536135 1.404037,1.85084c0.617044,0.292894 1.058911,0.302242 1.728247,-0.031159c0.664107,-0.330285 1.244547,-1.218314 1.244547,-1.794754c0,-0.535934 -0.645805,-0.511006 -0.792222,0.028043zm-0.828827,-1.791638c0.426179,-0.448689 0.522919,-1.370993 0.115042,-1.860188s-1.236703,-0.414414 -1.560913,0.133983c-0.376502,0.641874 -0.175178,1.131069 0.094125,1.651423c0.418335,0.386371 0.980473,0.464268 1.351746,0.074781z" stroke-width="1.5" fill="#56aaef"/>
 </g>
</svg>