<svg width="66" height="86" xmlns="http://www.w3.org/2000/svg">
 <!-- Created with Method Draw - http://github.com/duopixel/Method-Draw/ -->
 <g>
  <title>background</title>
  <rect fill="none" id="canvas_background" height="88" width="68" y="-1" x="-1"/>
  <g display="none" overflow="visible" y="0" x="0" height="100%" width="100%" id="canvasGrid">
   <rect fill="url(#gridpattern)" stroke-width="0" y="0" x="0" height="100%" width="100%"/>
  </g>
 </g>
 <g>
  <title>Layer 1</title>
  <path opacity="0.75" stroke="null" id="svg_2" d="m59.034504,40.255621c-3.069075,-3.911491 -6.823869,-7.078252 -10.590194,-9.293524c-4.39471,2.270666 -9.74723,3.653334 -15.582517,3.653334c-5.846744,0 -11.206963,-1.385362 -15.593925,-3.653334c-3.766317,2.215272 -7.524947,5.382033 -10.601555,9.293524c-7.14188,9.081362 -7.927312,18.396522 -1.758729,20.811819c2.762552,1.088014 5.659047,0.277071 8.651455,-1.757099c-0.524909,2.062521 -0.831446,4.298026 -0.831446,6.636302c0,10.388362 5.720399,18.803367 12.770168,18.803367c4.249133,0 6.35258,-3.064093 7.364032,-7.755451c1.007721,4.691358 3.111151,7.755451 7.344884,7.755451c7.061354,0 12.781806,-8.415006 12.781806,-18.803367c0,-2.338279 -0.306638,-4.573781 -0.842956,-6.636302c3.000002,2.03417 5.892687,2.845113 8.662908,1.757099c6.164786,-2.415297 5.367756,-11.730461 -1.773926,-20.811819l-0.000004,0zm-26.180252,-9.184055c11.862068,0 21.482824,-6.787671 21.482824,-15.160774s-9.620756,-15.160792 -21.482824,-15.160792c-11.866103,0 -21.494458,6.789022 -21.494458,15.160792s9.628355,15.160774 21.494458,15.160774z" stroke-width="1.5" fill="#007f3f"/>
  <text xml:space="preserve" text-anchor="start" font-family="Helvetica, Arial, sans-serif" font-size="24" id="svg_3" y="59" x="17" stroke-opacity="null" stroke-width="0" stroke="null" fill="#ffffff">me</text>
 </g>
</svg>